<?xml version="1.0" encoding="UTF-8" standalone="no"?>
<!-- Created with Inkscape (http://www.inkscape.org/) -->

<svg
   width="55mm"
   height="85mm"
   viewBox="0 0 55 85"
   version="1.1"
   id="svg5"
   xml:space="preserve"
   inkscape:version="1.2 (dc2aeda, 2022-05-15)"
   sodipodi:docname="master_system_blank_v_purebit_1-0-0.svg"
   inkscape:export-filename="Alex Kidd in Miracle World.png"
   inkscape:export-xdpi="384"
   inkscape:export-ydpi="384"
   xmlns:inkscape="http://www.inkscape.org/namespaces/inkscape"
   xmlns:sodipodi="http://sodipodi.sourceforge.net/DTD/sodipodi-0.dtd"
   xmlns:xlink="http://www.w3.org/1999/xlink"
   xmlns="http://www.w3.org/2000/svg"
   xmlns:svg="http://www.w3.org/2000/svg"
   xmlns:rdf="http://www.w3.org/1999/02/22-rdf-syntax-ns#"
   xmlns:cc="http://creativecommons.org/ns#"
   xmlns:dc="http://purl.org/dc/elements/1.1/"><title
     id="title1845">PureBit Master System Template, Vertical</title><sodipodi:namedview
     id="namedview7"
     pagecolor="#ffffff"
     bordercolor="#111111"
     borderopacity="1"
     inkscape:showpageshadow="0"
     inkscape:pageopacity="0"
     inkscape:pagecheckerboard="1"
     inkscape:deskcolor="#d1d1d1"
     inkscape:document-units="mm"
     showgrid="false"
     showguides="true"
     inkscape:zoom="1.410678"
     inkscape:cx="35.089509"
     inkscape:cy="204.51159"
     inkscape:window-width="1920"
     inkscape:window-height="1027"
     inkscape:window-x="1440"
     inkscape:window-y="1226"
     inkscape:window-maximized="1"
     inkscape:current-layer="layer1"><sodipodi:guide
       position="2.0450212,92.236228"
       orientation="1,0"
       id="guide132"
       inkscape:locked="false" /><sodipodi:guide
       position="53.013241,95.854343"
       orientation="1,0"
       id="guide184"
       inkscape:locked="false" /><sodipodi:guide
       position="84.789724,82.954978"
       orientation="0,-1"
       id="guide186"
       inkscape:locked="false" /><sodipodi:guide
       position="39.37701,4.4662301"
       orientation="0,-1"
       id="guide188"
       inkscape:locked="false" /></sodipodi:namedview><defs
     id="defs2"><pattern
       inkscape:collect="always"
       xlink:href="#pattern17130"
       id="pattern1481"
       patternTransform="matrix(0.26454655,0,0,0.26458333,-2.3251577,-2.9279447)" /><pattern
       patternUnits="userSpaceOnUse"
       width="225.51267"
       height="72.902628"
       patternTransform="translate(-8.8193272,-11.066248)"
       id="pattern17130"><rect
         style="display:inline;fill:#a11a42;fill-opacity:1;stroke-width:1.78261"
         id="rect374"
         width="225.51266"
         height="72.902626"
         x="0"
         y="0"
         ry="0"
         inkscape:label="Background" /></pattern></defs><g
     inkscape:label="Layer 1"
     inkscape:groupmode="layer"
     id="layer1"><rect
       style="display:inline;fill:#ffffff;stroke:#000000;stroke-width:0.5;stroke-dasharray:none;stroke-opacity:1"
       id="rect2055"
       width="59.649231"
       height="90.855888"
       x="-2.324616"
       y="-2.9279447"
       ry="3.7275035"
       inkscape:export-filename="Shinobi System16.png"
       inkscape:export-xdpi="96"
       inkscape:export-ydpi="96"
       inkscape:label="Background" /><g
       id="g21185"
       inkscape:label="BG Hatch"><g
         id="g21134"
         inkscape:label="BG Hatch Vertical"
         transform="translate(-1.6665531)"><path
           style="fill:#000000;fill-opacity:1;stroke:#b3b3b3;stroke-width:0.264999;stroke-dasharray:none;stroke-opacity:1"
           d="M 5.1665531,16.360875 V 87.927944"
           id="path21005" /><path
           style="fill:#000000;fill-opacity:1;stroke:#b3b3b3;stroke-width:0.264999;stroke-dasharray:none;stroke-opacity:1"
           d="M 13.166553,16.360875 V 87.927944"
           id="path21115" /><path
           style="fill:#000000;fill-opacity:1;stroke:#b3b3b3;stroke-width:0.264999;stroke-dasharray:none;stroke-opacity:1"
           d="M 21.166553,16.360875 V 87.927944"
           id="path21117" /><path
           style="fill:#000000;fill-opacity:1;stroke:#b3b3b3;stroke-width:0.264999;stroke-dasharray:none;stroke-opacity:1"
           d="M 29.166553,16.360875 V 87.927944"
           id="path21119" /><path
           style="fill:#000000;fill-opacity:1;stroke:#b3b3b3;stroke-width:0.264999;stroke-dasharray:none;stroke-opacity:1"
           d="M 37.166553,16.360875 V 87.927944"
           id="path21121" /><path
           style="fill:#000000;fill-opacity:1;stroke:#b3b3b3;stroke-width:0.264999;stroke-dasharray:none;stroke-opacity:1"
           d="M 45.166553,16.360875 V 87.927944"
           id="path21123" /><path
           style="fill:#000000;fill-opacity:1;stroke:#b3b3b3;stroke-width:0.264999;stroke-dasharray:none;stroke-opacity:1"
           d="M 53.166553,16.360875 V 87.927944"
           id="path21125" /></g><g
         id="g21165"
         inkscape:label="BG Hatch Horizontal"><path
           style="fill:#000000;fill-opacity:1;stroke:#b3b3b3;stroke-width:0.264999;stroke-dasharray:none;stroke-opacity:1"
           d="M -2.333447,16.360875 H 57.333445"
           id="path21136" /><path
           style="fill:#000000;fill-opacity:1;stroke:#b3b3b3;stroke-width:0.264999;stroke-dasharray:none;stroke-opacity:1"
           d="M -2.333447,24.360875 H 57.333445"
           id="path21138" /><path
           style="fill:#000000;fill-opacity:1;stroke:#b3b3b3;stroke-width:0.264999;stroke-dasharray:none;stroke-opacity:1"
           d="M -2.333447,32.360875 H 57.333445"
           id="path21140" /><path
           style="fill:#000000;fill-opacity:1;stroke:#b3b3b3;stroke-width:0.264999;stroke-dasharray:none;stroke-opacity:1"
           d="M -2.333447,40.360875 H 57.333445"
           id="path21142" /><path
           style="fill:#000000;fill-opacity:1;stroke:#b3b3b3;stroke-width:0.264999;stroke-dasharray:none;stroke-opacity:1"
           d="M -2.333447,48.360875 H 57.333445"
           id="path21144" /><path
           style="fill:#000000;fill-opacity:1;stroke:#b3b3b3;stroke-width:0.264999;stroke-dasharray:none;stroke-opacity:1"
           d="M -2.333447,56.360875 H 57.333445"
           id="path21146" /><path
           style="fill:#000000;fill-opacity:1;stroke:#b3b3b3;stroke-width:0.264999;stroke-dasharray:none;stroke-opacity:1"
           d="M -2.333447,64.360875 H 57.333445"
           id="path21148" /><path
           style="fill:#000000;fill-opacity:1;stroke:#b3b3b3;stroke-width:0.264999;stroke-dasharray:none;stroke-opacity:1"
           d="M -2.333447,72.360875 H 57.333445"
           id="path21150" /><path
           style="fill:#000000;fill-opacity:1;stroke:#b3b3b3;stroke-width:0.264999;stroke-dasharray:none;stroke-opacity:1"
           d="M -2.333447,80.360875 H 57.333445"
           id="path21152" /></g></g><g
       id="g1063"
       transform="matrix(0.20499221,0,0,0.20499221,76.296747,85.343423)"
       inkscape:label="SEGA logo"><path
         d="m -238.62191,-27.385883 c 1.45733,1.415256 3.44461,2.290233 5.63642,2.290233 l 34.63105,0.0026 -7.47924,-22.312842 c -1.02156,-2.370402 -3.41815,-4.030397 -6.29656,-4.030397 -2.86623,0 -5.29907,1.714235 -6.28253,4.074847 l -2.49317,7.268369 -0.0106,-10.967773 -12.09384,-0.0053 c -2.18599,0 -4.15105,0.853016 -5.59832,2.264039 l 0.005,-2.25425 h -12.38276 c -2.30637,0 -4.40399,0.983456 -5.8711,2.529152 v -2.538941 l -11.67077,0.01058 c -5.0382,-0.0053 -9.17099,3.934089 -9.17708,9.141089 0,2.410619 1.05357,4.596871 2.60721,6.21665 l -2.63128,-0.0053 v 10.606352 h 11.75861 c 3.30385,-0.0026 6.5778,-1.99734 7.71578,-4.385734 l 0.0341,-0.09816 c 1.31471,2.655358 4.05844,4.48601 7.23397,4.48601 h 12.36477 v -2.288116"
         style="fill:#ffffff;stroke-width:0.264583"
         id="path776" /><path
         d="m -275.91281,-26.910427 9.91579,-0.01058 c 4.05686,0 7.34457,-3.277659 7.34457,-7.316259 0,-4.046537 -3.28771,-7.32446 -7.34457,-7.32446 l -2.57519,0.01323 c -0.20294,0 -0.36751,-0.166423 -0.36751,-0.37121 0,-0.204788 0.16457,-0.371475 0.36751,-0.371475 h 9.8978 l 0.005,-3.10515 h -9.90388 c -1.91479,0 -3.47266,1.555485 -3.47266,3.466571 0,1.912937 1.5576,3.462337 3.47266,3.462337 l 2.58736,0.03413 c 2.32436,0 4.20528,1.874573 4.20528,4.187296 0,2.31431 -1.88065,4.193117 -4.20528,4.193117 h -9.92188 l -0.003,3.139016"
         style="fill:#0060a8;stroke-width:0.264583"
         id="path778" /><path
         d="m -275.90884,-30.778371 h 9.92187 c 1.92088,0 3.47451,-1.5494 3.47451,-3.464454 0,-1.912937 -1.55363,-3.460485 -3.47451,-3.460485 l -2.58736,-0.02805 c -2.32039,0 -4.20317,-1.87669 -4.20317,-4.195233 0,-2.312194 1.88278,-4.189148 4.20317,-4.189148 h 9.90389 l -0.005,-3.117056 h -9.8978 c -4.05263,0 -7.34457,3.273954 -7.34457,7.316522 0,4.042569 3.29194,7.318375 7.34457,7.318375 l 2.56116,0.0026 c 0.19474,0 0.35931,0.15875 0.35931,0.359304 0,0.19685 -0.16457,0.355336 -0.35931,0.355336 l -9.90176,0.0079 0.003,3.095096"
         style="fill:#0060a8;stroke-width:0.264583"
         id="path780" /><path
         d="m -250.96472,-30.0296 c -1.72032,0 -3.12949,-1.371071 -3.12949,-3.121554 v -9.905471 c 0,-1.684073 1.40917,-3.069166 3.12949,-3.069166 h 10.58413 v -3.110971 h -10.58413 c -3.44434,0 -6.23438,2.779977 -6.23438,6.212416 v 9.871604 c 0,3.432705 2.79004,6.21665 6.23438,6.21665 l 10.53994,0.0053 v -3.103298 l -10.53782,0.0026"
         style="fill:#0060a8;stroke-width:0.264583"
         id="path782" /><path
         d="m -253.33538,-43.022494 c 0,-1.312597 1.05595,-2.376487 2.37066,-2.376487 h 10.58413 v 3.115204 h -9.11887 c -0.73051,0 -0.74056,0.724694 -0.74056,0.724694 h 7.60756 v 3.101181 h -10.70663 l 0.003,-4.564592"
         style="fill:#0060a8;stroke-width:0.264583"
         id="path784" /><path
         d="m -250.96472,-30.784192 c -1.31074,0 -2.37463,-1.057804 -2.37463,-2.366698 v -4.56856 h 10.70663 v 3.107531 h -7.60757 c 0.0106,0.730515 0.74057,0.734219 0.74057,0.734219 h 9.07468 v 3.089275 l -10.53756,0.0053"
         style="fill:#0060a8;stroke-width:0.264583"
         id="path786" /><path
         d="m -232.96353,-30.037537 c -1.71423,0 -3.1152,-1.397 -3.1152,-3.113617 v -9.871604 c 0,-1.718204 1.39091,-3.103298 3.107,-3.103298 h 10.25128 v -3.108854 h -10.27509 c -3.44276,0 -6.23279,2.779977 -6.23279,6.212416 v 9.871604 c 0,3.432705 2.81411,6.21665 6.2566,6.21665 l 10.25128,0.0053 v -14.629077 h -8.80983 v 3.101181 h 5.69648 v 8.420365 h -7.12973"
         style="fill:#0060a8;stroke-width:0.264583"
         id="path788" /><path
         d="m -235.34822,-33.151154 c 0,1.315244 1.06389,2.384954 2.37649,2.384954 h 6.40318 v -6.957219 h -4.95406 v 3.1115 h 1.83859 l 0.005,0.730515 h -1.83039 c -0.39952,0 -0.72655,-0.330994 -0.72655,-0.730515 l -0.0159,-6.949281 c 0,0 0,-0.722577 0.73474,-0.740569 h 8.79978 l -0.003,-3.099329 h -10.25129 c -1.31259,0 -2.37648,1.06389 -2.37648,2.376488 v 9.871339"
         style="fill:#0060a8;stroke-width:0.264583"
         id="path790" /><path
         d="m -213.08776,-45.445283 c 0.13811,-0.395288 0.51355,-0.680244 0.95726,-0.680244 0.44397,0 0.82312,0.284956 0.95753,0.680244 l 4.97628,14.701043 h -7.28662 l 0.008,-3.458368 h 2.43496 l -1.09617,-3.257815 -3.57081,10.527771 h -3.67321 l 6.29285,-18.512631"
         style="fill:#0060a8;stroke-width:0.264583"
         id="path792" /><path
         d="m -205.19339,-30.037537 h -8.27775 v 3.104885 h 12.59734 l -6.55161,-19.383904 c -0.57415,-1.890712 -2.46671,-3.281627 -4.70721,-3.281627 -2.24393,0 -4.13067,1.384829 -4.70905,3.273954 l -6.61167,19.391841 h 3.29803 l 6.41932,-18.849974 c 0.26061,-0.624152 0.87524,-1.06389 1.59782,-1.06389 0.71861,0 1.33667,0.439738 1.59967,1.059921 l 5.34511,15.748794"
         style="fill:#0060a8;stroke-width:0.264583"
         id="path794" /></g><g
       id="g20361"
       inkscape:label="Label"
       transform="translate(-76.125731,6.4484265)"><g
         id="g1516"
         transform="matrix(1.0040334,0,0,1.0040334,76.135651,-6.266425)"><rect
           style="display:inline;fill:url(#pattern1481);fill-opacity:1;stroke:none;stroke-width:0.264981;stroke-dasharray:none;stroke-opacity:1"
           width="59.6586"
           height="19.28882"
           x="-2.3251581"
           y="-2.9279447"
           id="rect17133"
           inkscape:label="Label Background" /><g
           id="g20171"
           inkscape:label="Hatch vertical"><path
             style="fill:#000000;fill-opacity:1;stroke:#ffffff;stroke-width:0.264093;stroke-dasharray:none;stroke-opacity:1"
             d="M 0.1665531,-2.9279449 V 16.360875"
             id="path20025" /><path
             style="fill:#000000;fill-opacity:1;stroke:#ffffff;stroke-width:0.264093;stroke-dasharray:none;stroke-opacity:1"
             d="M 2.6665531,-2.9279449 V 16.360875"
             id="path20027" /><path
             style="fill:#000000;fill-opacity:1;stroke:#ffffff;stroke-width:0.264093;stroke-dasharray:none;stroke-opacity:1"
             d="M 5.1665531,-2.9279449 V 16.360875"
             id="path20029" /><path
             style="fill:#000000;fill-opacity:1;stroke:#ffffff;stroke-width:0.264093;stroke-dasharray:none;stroke-opacity:1"
             d="M 7.6665531,-2.9279449 V 16.360875"
             id="path20031" /><path
             style="fill:#000000;fill-opacity:1;stroke:#ffffff;stroke-width:0.264093;stroke-dasharray:none;stroke-opacity:1"
             d="M 10.166553,-2.9279449 V 16.360875"
             id="path20033" /><path
             style="fill:#000000;fill-opacity:1;stroke:#ffffff;stroke-width:0.264093;stroke-dasharray:none;stroke-opacity:1"
             d="M 12.666553,-2.9279449 V 16.360875"
             id="path20035" /><path
             style="fill:#000000;fill-opacity:1;stroke:#ffffff;stroke-width:0.264093;stroke-dasharray:none;stroke-opacity:1"
             d="M 15.166553,-2.9279449 V 16.360875"
             id="path20037" /><path
             style="fill:#000000;fill-opacity:1;stroke:#ffffff;stroke-width:0.264093;stroke-dasharray:none;stroke-opacity:1"
             d="M 17.666553,-2.9279449 V 16.360875"
             id="path20039" /><path
             style="fill:#000000;fill-opacity:1;stroke:#ffffff;stroke-width:0.264093;stroke-dasharray:none;stroke-opacity:1"
             d="M 20.166553,-2.9279449 V 16.360875"
             id="path20041" /><path
             style="fill:#000000;fill-opacity:1;stroke:#ffffff;stroke-width:0.264093;stroke-dasharray:none;stroke-opacity:1"
             d="M 22.666553,-2.9279449 V 16.360875"
             id="path20043" /><path
             style="fill:#000000;fill-opacity:1;stroke:#ffffff;stroke-width:0.264093;stroke-dasharray:none;stroke-opacity:1"
             d="M 25.166553,-2.9279449 V 16.360875"
             id="path20045" /><path
             style="fill:#000000;fill-opacity:1;stroke:#ffffff;stroke-width:0.264093;stroke-dasharray:none;stroke-opacity:1"
             d="M 27.666553,-2.9279449 V 16.360875"
             id="path20047" /><path
             style="fill:#000000;fill-opacity:1;stroke:#ffffff;stroke-width:0.264093;stroke-dasharray:none;stroke-opacity:1"
             d="M 30.166553,-2.9279449 V 16.360875"
             id="path20049" /><path
             style="fill:#000000;fill-opacity:1;stroke:#ffffff;stroke-width:0.264093;stroke-dasharray:none;stroke-opacity:1"
             d="M 32.666553,-2.9279449 V 16.360875"
             id="path20051" /><path
             style="fill:#000000;fill-opacity:1;stroke:#ffffff;stroke-width:0.264093;stroke-dasharray:none;stroke-opacity:1"
             d="M 35.166553,-2.9279449 V 16.360875"
             id="path20053" /><path
             style="fill:#000000;fill-opacity:1;stroke:#ffffff;stroke-width:0.264093;stroke-dasharray:none;stroke-opacity:1"
             d="M 37.666553,-2.9279449 V 16.360875"
             id="path20055" /><path
             style="fill:#000000;fill-opacity:1;stroke:#ffffff;stroke-width:0.264093;stroke-dasharray:none;stroke-opacity:1"
             d="M 40.166553,-2.9279449 V 16.360875"
             id="path20057" /><path
             style="fill:#000000;fill-opacity:1;stroke:#ffffff;stroke-width:0.264093;stroke-dasharray:none;stroke-opacity:1"
             d="M 42.666553,-2.9279449 V 16.360875"
             id="path20059" /><path
             style="fill:#000000;fill-opacity:1;stroke:#ffffff;stroke-width:0.264093;stroke-dasharray:none;stroke-opacity:1"
             d="M 45.166553,-2.9279449 V 16.360875"
             id="path20061" /><path
             style="fill:#000000;fill-opacity:1;stroke:#ffffff;stroke-width:0.264093;stroke-dasharray:none;stroke-opacity:1"
             d="M 47.666553,-2.9279449 V 16.360875"
             id="path20063" /><path
             style="fill:#000000;fill-opacity:1;stroke:#ffffff;stroke-width:0.264093;stroke-dasharray:none;stroke-opacity:1"
             d="M 50.166553,-2.9279449 V 16.360875"
             id="path20065" /><path
             style="fill:#000000;fill-opacity:1;stroke:#ffffff;stroke-width:0.264093;stroke-dasharray:none;stroke-opacity:1"
             d="M 52.666553,-2.9279449 V 16.360875"
             id="path20067" /><path
             style="fill:#000000;fill-opacity:1;stroke:#ffffff;stroke-width:0.264093;stroke-dasharray:none;stroke-opacity:1"
             d="M 55.166553,-2.9279449 V 16.360875"
             id="path20069" /></g><g
           id="g20320"
           inkscape:label="Hatch Vertical"><path
             style="fill:#000000;fill-opacity:1;stroke:#ffffff;stroke-width:0.264263;stroke-dasharray:none;stroke-opacity:1"
             d="M -2.3246159,-0.4279447 H 57.333445"
             id="path20173" /><path
             style="fill:#000000;fill-opacity:1;stroke:#ffffff;stroke-width:0.264263;stroke-dasharray:none;stroke-opacity:1"
             d="M -2.3246159,2.0720553 H 57.333445"
             id="path20301" /><path
             style="fill:#000000;fill-opacity:1;stroke:#ffffff;stroke-width:0.264263;stroke-dasharray:none;stroke-opacity:1"
             d="M -2.3246159,4.5720553 H 57.333445"
             id="path20303" /><path
             style="fill:#000000;fill-opacity:1;stroke:#ffffff;stroke-width:0.264263;stroke-dasharray:none;stroke-opacity:1"
             d="M -2.3246159,7.0720553 H 57.333445"
             id="path20305" /><path
             style="fill:#000000;fill-opacity:1;stroke:#ffffff;stroke-width:0.264263;stroke-dasharray:none;stroke-opacity:1"
             d="M -2.3246159,9.5720553 H 57.333445"
             id="path20307" /><path
             style="fill:#000000;fill-opacity:1;stroke:#ffffff;stroke-width:0.264263;stroke-dasharray:none;stroke-opacity:1"
             d="M -2.3246159,12.072055 H 57.333445"
             id="path20309" /><path
             style="fill:#000000;fill-opacity:1;stroke:#ffffff;stroke-width:0.264263;stroke-dasharray:none;stroke-opacity:1"
             d="M -2.3246159,14.572055 H 57.333445"
             id="path20311" /></g></g></g><g
       id="g14841"
       inkscape:label="Master System Logo"
       transform="matrix(0.85905915,0,0,0.85905915,-13.825808,59.922157)"
       sodipodi:insensitive="true"><g
         id="g13652"
         transform="translate(3.2046742,-28.828353)"><text
           xml:space="preserve"
           style="font-size:9.87777px;font-family:Impact;-inkscape-font-specification:Impact;letter-spacing:-0.547687px;fill:#ffffff;fill-opacity:1;stroke:#ffffff;stroke-width:1.7;stroke-dasharray:none;stroke-opacity:1"
           x="15.886839"
           y="-29.497311"
           id="text9483-6"><tspan
             sodipodi:role="line"
             id="tspan9481-1"
             style="font-style:normal;font-variant:normal;font-weight:normal;font-stretch:normal;font-family:Georgia;-inkscape-font-specification:Georgia;fill:#ffffff;fill-opacity:1;stroke:#ffffff;stroke-width:1.7;stroke-dasharray:none;stroke-opacity:1"
             x="15.886839"
             y="-29.497311">Master System</tspan></text><rect
           style="fill:#ffffff;fill-opacity:1;stroke:#ffffff;stroke-width:1.7;stroke-dasharray:none;stroke-opacity:1"
           id="rect13601"
           width="22.467237"
           height="2.2745757"
           x="18.800064"
           y="-32.772457"
           ry="1.1372879" /><rect
           style="fill:#ffffff;fill-opacity:1;stroke:#ffffff;stroke-width:1.7;stroke-dasharray:none;stroke-opacity:1"
           id="rect13601-9"
           width="22.467237"
           height="2.2745757"
           x="49.808567"
           y="-33.063046"
           ry="1.1372879" /><rect
           style="fill:#ffffff;fill-opacity:1;stroke:#ffffff;stroke-width:0.79005;stroke-dasharray:none;stroke-opacity:1"
           id="rect13601-9-0"
           width="2.2097075"
           height="4.9949017"
           x="46.642422"
           y="-35.037807"
           ry="2.4974508" /></g><rect
         style="fill:#0060a8;fill-opacity:1;stroke:none;stroke-width:2.63559;stroke-dasharray:none;stroke-opacity:1"
         id="rect13656"
         width="59.265739"
         height="0.90151846"
         x="18.473022"
         y="-57.742168"
         ry="0"
         rx="0" /><text
         xml:space="preserve"
         style="font-size:9.87777px;font-family:Impact;-inkscape-font-specification:Impact;letter-spacing:-0.547687px;fill:#eb5642;fill-opacity:1;stroke:none;stroke-width:0.4;stroke-dasharray:none;stroke-opacity:1"
         x="19.091513"
         y="-58.325665"
         id="text9483"><tspan
           sodipodi:role="line"
           id="tspan9481"
           style="font-style:normal;font-variant:normal;font-weight:normal;font-stretch:normal;font-family:Georgia;-inkscape-font-specification:Georgia;fill:#ff0000;stroke:none;stroke-width:0.4;stroke-dasharray:none;stroke-opacity:1"
           x="19.091513"
           y="-58.325665">Master System</tspan></text></g><rect
       style="display:inline;fill:none;stroke:#000000;stroke-width:0.5;stroke-dasharray:none;stroke-opacity:1"
       id="rect1518"
       width="59.649231"
       height="90.855888"
       x="-2.324616"
       y="-2.9279447"
       ry="3.7275035"
       inkscape:export-filename="Shinobi System16.png"
       inkscape:export-xdpi="96"
       inkscape:export-ydpi="96"
       inkscape:label="Cutout frame" /></g><metadata
     id="metadata1843"><rdf:RDF><cc:Work
         rdf:about=""><dc:title>PureBit Master System Template, Vertical</dc:title><dc:creator><cc:Agent><dc:title>Tony Ferrelli</dc:title></cc:Agent></dc:creator><dc:rights><cc:Agent><dc:title>CC BY-SA</dc:title></cc:Agent></dc:rights><dc:identifier>1.0</dc:identifier></cc:Work></rdf:RDF></metadata></svg>
